<svg version="1.2" xmlns="http://www.w3.org/2000/svg" viewBox="0 0 1544 488" width="1544" height="488">
	<title>蚂蚁集团标志（RGB）-ai-svg</title>
	<defs>
		<linearGradient id="g1" x2="1" gradientUnits="userSpaceOnUse" gradientTransform="matrix(75.724,-142.415,45.217,24.042,84.968,75.52)">
			<stop offset="0" stop-color="#0066ff"/>
			<stop offset=".2" stop-color="#1677ff"/>
			<stop offset="1" stop-color="#04a6ff"/>
		</linearGradient>
		<linearGradient id="g2" x2="1" gradientUnits="userSpaceOnUse" gradientTransform="matrix(452.671,-164.759,171.467,471.1,-124.438,144.886)">
			<stop offset="0" stop-color="#0066ff"/>
			<stop offset=".2" stop-color="#1677ff"/>
			<stop offset="1" stop-color="#04a6ff"/>
		</linearGradient>
		<linearGradient id="g3" x2="1" gradientUnits="userSpaceOnUse" gradientTransform="matrix(-40.887,-152.597,49.99,-13.394,-103.076,233.311)">
			<stop offset="0" stop-color="#0066ff"/>
			<stop offset=".2" stop-color="#1677ff"/>
			<stop offset="1" stop-color="#04a6ff"/>
		</linearGradient>
	</defs>
	<style>
		.s0 { fill: url(#g1) } 
		.s1 { fill: url(#g2) } 
		.s2 { fill: url(#g3) } 
		.s3 { fill: #ffffff } 
		.s4 { fill: #000000 } 
	</style>
	<g id="内容">
		<g id="&lt;Group&gt;">
			<g id="&lt;Group&gt;">
				<path id="&lt;Compound Path&gt;" class="s0" d="m215 140.1c-3.1-0.7-6.1-2.8-7.3-6.9-1.3-3.6-0.9-7.5-0.2-11.3 3.4-19 6.6-38.3 11-57.2 3.6-15.5 8.8-30.6 18-43.6 6.8-9.3 16.4-17.1 27.8-20 19.3-4.8 27.3 13.9 20.5 30-5.7 13.3-19.2 20.3-29.2 29.9-18.3 17.6-24 47.6-29.4 71.3-1.4 6-6.6 8.9-11.2 7.8z"/>
				<g id="&lt;Group&gt;">
					<path id="&lt;Compound Path&gt;" class="s1" d="m179.5 115.7c-6.8-0.2-13.2-1.1-19.4-4.6-5.9-3.4-13.5-9.3-20.9-6.8-7.8 2.7-10.8 13.7-17.1 19.1-8.7 7.6-19.2 11.7-29 17.6-8.4 5-16.6 10.5-24.2 16.8-15.2 12.3-28.4 27-38.9 43.4-20.7 31.9-31 69.9-29.4 107.8 4.1 105.7 95.5 187.1 202.3 178 95.1-8 169.6-88.3 170.3-183.7 0.2-32.2-8-64.3-23.9-92.4-15.3-27.3-37.4-50.5-63.9-67-27.1-17-58.5-26.6-90.6-28-5.1-0.2-10.1 0-15.3-0.2z"/>
				</g>
				<path id="&lt;Compound Path&gt;" class="s2" d="m51.4 46.2c1.8-5.1 4.4-9.8 8.4-13 7.8-6.4 19.2-5.2 25.6 2.5 15.2 18.2 3.8 46 3.1 67-0.6 17.6 5.5 35.8 12.6 51.5 1.3 3 3.6 6.1 4.1 9.6 0.7 5.7-1.8 10.5-6.4 12.7-7.5 3.7-12.3-4.1-15.5-9.8-7.3-13.2-13.4-27.3-19.3-41-6-14.3-11-28.9-13.5-44.2q-0.7-4.1-1.1-8.2-0.5-3.9-0.5-7.7c-0.4-6 0.4-13.1 2.5-19.4z"/>
				<path id="&lt;Compound Path&gt;" fill-rule="evenodd" class="s3" d="m257.4 403.3c-62.2-0.2-117.4-56.7-123.3-125.8-5.9-69.1 39.5-125.3 101.6-125.4 62.3 0 117.9 56.3 124 125.8 6 69.6-39.9 125.8-102.3 125.4zm94.8-129c-2.7-29.2-15.5-56.7-36-77.5-20.5-20.7-46.3-32.1-72.5-32.1q-1.5 0-2.9 0.2c-23.9 0.7-45.8 10.9-61.8 28.9-19.1 21.2-28.2 51.6-25 83.3 3.1 29.8 16.3 57.6 37.5 78.1 21 20.5 47.2 31.3 73.9 30.5 23.7-0.8 45.6-10.9 61.7-28.9 18.9-21.2 28.1-51.1 25.1-82.5z"/>
			</g>
			<g id="&lt;Group&gt;">
				<g id="&lt;Group&gt;">
					<path id="&lt;Compound Path&gt;" fill-rule="evenodd" class="s4" d="m1028.1 238.3v44.7h-19.8v-44.7h-9.6c-6.9 11.6-25.8 34.6-68.2 42.8l-3.6-18.6c25.1-4.8 39.9-15.5 48.1-24.2h-48.6v-18.5h81.9v-9.5h-51.6c-12.7 0-18.8-6-18.8-18.7v-38.5q-4.4 4.3-9.2 8.4l-12.7-15.1c32.3-27.1 48.8-56.9 49-57.2l17.3 9.4c-0.3 0.7-3.7 6.8-10.3 16h21.9c13.7 0 21.6-2.6 30.5-15.1 4.8-7 6.4-10.2 6.6-10.3l17.2 9.4c-0.1 0.4-1.2 2.3-3.3 5.9q-4 5.9-10.7 10.1h69.6v17.5h-72.1v8.9h67.3v17.1h-67.3v9.3h67.3v17.1h-67.3v8.4h72.1v17.4h-75.7v9.5h82v18.5h-48.7c8.2 8.7 23 19.4 48.1 24.2l-3.5 18.6c-42.4-8.2-61.1-31.2-68.1-42.8zm-70.9-70.9h54.5v-9.3h-54.5zm1.1-35.3q-0.6 0.6-1.1 1.1v7.8h54.5v-8.9zm2.9 60.6h50.8v-8.2h-54.6v4.7c0 3.2 0.6 3.5 3.8 3.5z"/>
					<path id="&lt;Path&gt;" class="s4" d="m672.1 251.8c4.2-11.4 4.8-36.8 4.8-60.7v-8.6h-26.4l5.3-81h-86.2v18.3h65l-3.9 62.7h-33.7l3.8-52.7h-19.1l-5.2 71.1h80.6c-0.4 23.7-1.4 37.6-3.6 43.3-2.8 8-8 16.9-27.8 16.9h-31v18.9h31.7c24.1 0 38.7-8.9 45.7-28.2z"/>
					<path id="&lt;Compound Path&gt;" fill-rule="evenodd" class="s4" d="m551.4 280h-70v-20.7h31v-32.9h-30.7v-105.9h30.7v-26.4h19.8v26.4h31.5v83.2c0 13.8-8.9 22.7-22.6 22.7h-8.9v32.9h15.7v-19.2h19.7v-19.4h68.3v19.7h-68.3v23.6c0 9.9-6 16-16.2 16zm-19.2-140.2v67.1h8.9c1.6 0 2.8-1.2 2.8-2.6v-64.5zm-30.6 67.1h10.9v-67.1h-10.9z"/>
					<path id="&lt;Compound Path&gt;" fill-rule="evenodd" class="s4" d="m1290.8 283h-143.5v-183.9h178.8v148.6c0 23-12.3 35.3-35.3 35.3zm15.7-164.1h-139.4v144.3h123.7c9.8 0 15.7-5.7 15.7-15.5z"/>
					<path id="&lt;Path&gt;" class="s4" d="m1178.3 216.2l6.8 18.5c28.9-10.7 56.8-31.7 73.1-53.8v37.4c0 7.7-6.8 13.9-15 13.9h-17.8v18.9h19.6c19 0 32.9-13.3 32.9-31.9v-49.1h14.3v-18.9h-14.3v-20.2h-19.7v20.2h-76.5v18.9h61.1c-14.2 18.5-40.2 37-64.5 46.1z"/>
					<path id="&lt;Compound Path&gt;" fill-rule="evenodd" class="s4" d="m889.8 284.3c-17.8-15-33.5-29.3-46.8-44-13.4 14.7-29.1 29-46.9 44l-9.1-10.9c-2.7 4.3-7.3 6.6-13.5 6.6h-70.3v-20.7h31.1v-32.9h-30.7v-105.9h30.7v-26.4h19.7v26.4h31.6v83.2c0 13.8-8.9 22.7-22.5 22.7h-9.1v32.9h15.7v-19.2h19.8v22.8c15.3-13.2 28.7-25.7 40.1-38.9-6.6-8.9-12.7-18.1-17.8-28.1-13.4-26-14.5-54.9-14.5-80h20.7c0 23.7 0.9 48.6 12.1 70.5 3.8 7.4 8 14.1 12.9 20.9 4.8-6.8 9-13.5 12.8-20.9 11.2-21.9 12.1-46.8 12.1-70.5h20.7c0 26.2-1.1 54-14.5 80-5.1 10-11.2 19.2-17.8 28.1 13 15 28.7 29.3 46.7 44.4zm-135.8-144.5v67.4h9.1c1.4 0 2.7-1.3 2.7-2.9v-64.5zm-30.7 67.4h11.1v-67.4h-11.1z"/>
					<path id="&lt;Path&gt;" class="s4" d="m836 152.4l16.2-2.1c-0.2-28.7-4.1-56.3-4.3-57.6l-19.6 2.9c0 0 0.2 0.9 0.4 2.1 1.1 6.1 5.5 29.8 7.3 54.7z"/>
				</g>
				<g id="&lt;Group&gt;">
					<path id="&lt;Compound Path&gt;" fill-rule="evenodd" class="s4" d="m1543.5 366.4c0 26.4-17.9 43.3-44.1 43.3h-35.1v41c0 0-4.6 1.1-11.2 1.1-6.4 0-11-1.1-11-1.1v-126.7h56.5c27.4 0 44.9 16 44.9 42.4zm-21.2 0.5c0-16.9-8.2-23.1-27.3-23.1h-30.7v46.1h30.7c17.1 0 27.3-6 27.3-23z"/>
					<path id="&lt;Compound Path&gt;" fill-rule="evenodd" class="s4" d="m1131.6 421.5c5.7 7.3 18.9 28.7 18.9 28.7 0 0-5 1.7-12.6 1.7-7.7 0-13-1-13-1h0.2c0-0.2-9.1-17.1-12.7-22.7-6.2-9.6-10.9-15.6-16.8-20.3-5.5-4.1-13-5.3-23.1-5.3h-14.3v48.3c-0.2 0-4.8 1-11.2 1-6.4 0-11.1-1-11.1-1v-127.1h54.9c29.8 0 50.5 8 50.5 38 0 16.9-10.2 29.9-27.5 34.9-5.5 1.6-8.5 1.1-8.7 2.1-0.2 1.5 5.7 2.4 12.3 7.7 5.5 4.3 9.8 9.4 14.2 15zm-12.4-59.7c0-15.7-8.9-19.4-28-19.4h-33v41.3h29.1c19 0 31.9-5.4 31.9-21.9z"/>
					<path id="&lt;Path&gt;" class="s4" d="m1394 324h0.1v75.2c0 20.5-12.1 33.5-32 33.5-20 0-32.1-13-32.1-33.5v-75.2c0-0.2-4.7-1.2-11.2-1.2-6.5 0-11.1 1-11.1 1.2v76.1c0 37 23.9 53.3 54.4 53.3 30.4 0 54.1-16.3 54.1-53.3v-76.1c0-0.2-4.4-1.2-11-1.2-6.4 0-11.2 1-11.2 1.2z"/>
					<path id="&lt;Path&gt;" class="s4" d="m952.4 341.8c17.8 0 31.3 6.6 42.4 21.9l16.4-12.1c-14.8-20.3-30.7-30.1-60.6-30.1-36.5 0-64.7 28.2-64.7 66.3 0 38.1 27.1 65.6 60.6 65.6 9.4 0 18-2 25.1-5 6.6-2.7 10.4-4.8 14.6-7.7 1.8-1.2 3.8-2.5 5.2-2.1 1.1 0.5 1.2 1.6 1.2 3 0 4.1 0 8.9 0 8.9 0 0 3.4 1.1 8.4 1.1 5 0 8.6-1.4 8.6-1.4l-0.2-67.8h-56.8v17 1.2h37.4c-0.2 13.6-12.5 32.5-40.5 32.5-26.4 0-41.9-21.1-41.9-45.3 0-27.6 21.8-46 44.8-46z"/>
					<path id="&lt;Compound Path&gt;" fill-rule="evenodd" class="s4" d="m1223 453.4c-36.5 0-66.1-29.5-66.1-66 0-36.4 29.6-65.9 66.1-65.9 36.5 0 66 29.5 66 65.9 0 36.5-29.5 66-66 66zm43.9-65.9c0-24.3-19.6-43.9-43.9-43.9-24.3 0-44 19.6-44 43.9 0 24.3 19.7 43.9 44 43.9 24.3 0 43.9-19.6 43.9-43.9z"/>
					<path id="&lt;Path&gt;" class="s4" d="m733.9 344.1h46.2v106.6c0 0 4.8 1.1 11.7 1.1 6.8 0 11.8-1.1 11.8-1.1v-106.6h46.1v-20.5h-115.8z"/>
					<path id="&lt;Path&gt;" class="s4" d="m693.3 323.6v92.2c-21.8-35.1-43.7-67-64.9-92.2 0 0-4.5-1.2-10.9-1.2-6.4 0-11 1.2-11 1.2v127.1c0 0 4.4 1.1 10.9 1.1 6.2 0 10.8-1.1 10.8-1.1v-98.5c23.4 32 45.1 65 64.7 98.5 0 0 4.6 1.1 11.1 1.1 6.4 0 11-1.1 11-1.1v-127.1c0 0-4.4-1.2-10.9-1.2-6.2 0-10.8 1.2-10.8 1.2z"/>
					<path id="&lt;Compound Path&gt;" fill-rule="evenodd" class="s4" d="m590.4 450.7c-0.7 0.2-5.1 1.1-11.2 1.1-6.6 0-10.5-0.9-11.2-1.1q0 0-0.2 0c0 0 0-0.2 0-0.4l-3.2-10.7-1.4-5.3-1.8-5.3-1.2-4c-0.9-2.1-2.2-2.8-5-4.1-4-1.7-13-4.2-27.5-6-11.7-1.4-29.4 1-29.4 1l-4.4 13.2-6.5 21.4q0 0-0.1 0.2c0 0-4.8 1.1-11.3 1.1-6.4 0-10.8-0.9-11.2-1.1l0.2-0.9q0.7-2.9 1.6-5.5l3.4-10.9 1.8-5.3 1.7-5.6 3.6-10.7q1.8-5.3 3.8-10.6l1.7-5.6c0.7-1.7 1.5-3.5 2-5.3l4.1-10.5c5.3-14.3 11.2-28.4 17.5-42.1 1.4-3.5 3-6.9 4.6-10.5l2-3.9h29.9l1.8 3.7q2.5 5.2 4.8 10.5c6.2 13.8 12.1 27.8 17.4 42.1l4.1 10.7q0.9 2.7 2 5.3l1.8 5.4q1.9 5.3 3.7 10.7l3.6 10.8 1.8 5.4 1.6 5.5 3.4 10.9q0.3 1.4 0.7 2.6l0.9 2.9zm-38.3-50.1q-0.8-1.6-1.3-3.2l-3.7-10.5q-7.8-20.8-16.6-41.1-0.5-1.3-1.1-2.5c-0.7-1.1-1.2-1.5-1.8-1.5-0.7 0-1.4 0.4-1.9 1.8q-0.6 1.1-1.1 2.3-8.8 20.3-16.6 41.2l-3.7 10.5c-0.4 1.1-1.1 3.7-1.6 4.8 6.6-2.1 15.5-3.4 24.9-3.7 10-0.4 18 1 24.5 1.9z"/>
				</g>
			</g>
		</g>
	</g>
</svg>